<?xml version="1.0" encoding="utf-8"?>
<!-- Generator: Adobe Illustrator 24.2.0, SVG Export Plug-In . SVG Version: 6.00 Build 0)  -->
<svg version="1.1" id="Layer_1" xmlns="http://www.w3.org/2000/svg" xmlns:xlink="http://www.w3.org/1999/xlink" x="0px" y="0px"
	 viewBox="0 0 1030 939" style="enable-background:new 0 0 1030 939;" xml:space="preserve">
<style type="text/css">
	.st0{fill:#35A1FF;}
	.st1{fill:#FFDD5F;}
	.st2{fill:#FF7996;}
</style>
<path class="st0" d="M787.8,859.9V939H584.4c-32.7-25-72.6-44.5-120.1-59.2c-59.1-18.1-128.6-27.8-208.1-29.1
	c-19.7-0.3-40.1-0.1-61,0.6c-28.4,1-58,3-88.6,5.9c-29.7,2.8-60.5,6.6-92.3,11.2c-4.8,0.7-9.6,1.4-14.3,2v-202
	c33.3-4.6,65.9-8.4,97.6-11.2c28.9-2.6,57.1-4.4,84.5-5.5c36-1.4,70.6-1.5,103.8-0.3c54,2,105.1,7.5,152.6,16.5
	c29.6,5.6,57.8,12.5,84.5,20.7c50.1,15.4,96,35.6,137,60.4c14.9,9,29.2,18.6,42.8,28.9C734.4,801.7,763,829.2,787.8,859.9z"/>
<path class="st1" d="M259.6,939H14.2c-4.8-7.7-9.6-15.5-14.2-23.3V91.1l39.3,15.1c-1.1,19.8,7.7,247.8,7.9,267.3
	c0.5,67,8.8,133.8,24.8,198.9c7.1,28.7,15.6,57,25.6,84.8c5.8,16.3,12.2,32.4,19.1,48.5c21.3,49.8,47.5,98.3,78.6,145.6
	c6.5,10,13.3,19.9,20.3,29.7C229.4,900.6,244,919.9,259.6,939z"/>
<path class="st2" d="M787.9,522.1v233.4c-51.6-35.4-106-65.8-163-91.1c-46.9-20.8-95.5-38.2-145.9-52.1
	c-70.5-19.5-144.4-32.2-221.7-38.2c-34-2.6-68.5-3.9-103.8-3.9c-13.2,0-26.3,0.2-39.7,0.5c-14.1,0.4-28.1,1-41.9,1.8
	c-24,1.4-48,3.4-72,5.9v-201c15.7-1.5,31.5-2.7,47.2-3.7c17.7-1.1,35.6-2,53.9-2.6c95.7-3,188.5,2.4,277.9,16.2
	c62.2,9.6,122.7,23.3,181.4,40.9c5.8,1.7,11.5,3.5,17.3,5.3c22.4,7.1,44.5,14.8,66.3,23.1c49.1,18.6,96.9,40.4,143.1,65.2
	C787.4,521.8,787.6,522,787.9,522.1z"/>
<path class="st0" d="M1030,0v156.2c-7.7,16.5-13.6,33.7-17.8,51.5c-1.5,6.5-2.9,13.2-4,19.9c-7.3,45-4,94.1,9.6,148.3
	c3.4,13.6,7.5,27.4,12.2,41.5V822c-4.3-5.7-8.6-11.5-12.8-17.2c-39.7-54.1-74-107-102.4-158.1c-42.6-76.6-73.2-151.3-90.9-222.1
	c-11.7-46.6-18.1-92.2-19.1-136.3c-0.1-6.1-0.2-12.2-0.1-18.3c0.2-15.3,1-30.5,2.5-45.4c3.2-31.7,9.5-63,18.8-93.4
	c2.2-7.3,4.7-14.5,7.3-21.7l131.4-79.5L1014,0H1030z"/>
<path class="st1" d="M1017.2,804.8c4.3-5.3,8.6-10.7,12.8-16.2V939H880.5c27.1-21.2,52.9-44.1,77.4-68.4
	C978.8,849.7,998.6,827.7,1017.2,804.8z"/>
<path class="st2" d="M1007.7,939H763.4c-39.7-62.3-74.2-125.6-103.4-189.9c-12.7-28.1-24.5-56.3-35.2-84.7
	C599.4,596.6,579.7,528,566,459c-1.2-5.9-2.3-11.8-3.4-17.8c-0.8-4.3-1.6-8.7-2.3-13.1c-5.6-32.5-9.9-65.3-12.8-98.2
	c-1.4-15.2-2.4-30.5-3.2-45.8l40.2-24.3l5.8-3.5l59.5-36l94.2-57c-2.6,45.5-2.2,90.8,1.3,135.9c5.7,74.7,19.7,148.9,41.9,222.5
	c0.3,0.8,0.5,1.7,0.8,2.5c28.6,93.7,70.5,186.3,125.9,277.8c6.8,11.3,13.8,22.4,21,33.7c7.6,11.9,15.4,23.5,23.2,34.9
	C973.9,893.8,990.5,916.6,1007.7,939z"/>
<path class="st2" d="M1030,0v200.5c-5.9,2.4-11.9,4.8-17.8,7.1c-1.3,0.5-2.6,1-4,1.5c-67.1,26-135,46.3-203.5,60.7c0,0-0.1,0-0.1,0
	c-7.7,1.6-15.4,3.2-23.1,4.6c-12.1,2.3-24.2,4.4-36.4,6.4c-39.9,6.4-80.2,10.7-120.5,13.1l-0.7-1.1L590.2,238l-2.1-3.4l-38.7-63
	l-47-76.4c42.6,2.2,85,1.7,127.2-1.5c14.4-1.1,28.9-2.5,43.2-4.2c98.3-11.6,195.7-37.6,291.8-78C973.5,7.8,982.3,3.9,991,0H1030z"/>
<path class="st0" d="M604.7,221.3l-16.6,31.5l-3.7,7l-36.9,70.1l-36.3,68.8c-34-21.9-72.1-41.5-110.8-58.7c-3.5-1.6-7-3.1-10.6-4.7
	c-28.5-12.3-57.3-23.4-84.9-33.2c-36.6-13-71.8-26.5-105.5-40.5C137.5,235.8,80.8,208.1,30.1,179C19.9,173.1,9.8,167.1,0,161V0
	h120.2c25.8,15.2,53.6,30,83.4,44.4c50.5,24.4,106.5,47.5,168,69.2c12.3,4.3,24.4,8.8,36.2,13.3c18.4,7,36.3,14.2,53.5,21.5
	c31.4,13.3,60.8,27.2,88.1,41.5c6.3,3.3,12.5,6.6,18.5,10C580.6,206.8,592.9,214,604.7,221.3z"/>
<path class="st1" d="M688.2,0c-4.7,34.8-9.7,72.1-11,80.6c-1.4,9.1-2.8,18.2-4.3,27.2c-6.4,38.4-14.1,76-23.2,112.5
	c-7.7,31-16.3,61.3-25.8,90.9c-13.6,42.2-29,82.9-46.3,122.2c-3.8,8.6-7.6,17.1-11.6,25.5c-7.3,15.5-14.9,30.8-22.7,45.8
	c-19.4,37-40.8,72.9-64.3,107.5c-3.9,5.7-7.8,11.4-11.8,17c-9.3,13.1-18.9,26-28.7,38.7c-3.1,4.1-6.3,8.1-9.5,12.1
	c-18.2,22.7-37.2,44.5-57.1,65.5c-35.9,37.9-74.6,73-115.6,105.2c-11.6,9.1-23.4,18-35.4,26.6c-1.8,1.3-3.5,2.5-5.3,3.8
	c-20.8,14.8-42.2,28.9-64.2,42.4l-44.7-66.2l-67.3-99.8c17-10.2,33.6-20.9,49.7-31.9c9.3-6.4,18.6-13,27.6-19.8
	c22.7-16.9,44.5-34.9,65.5-54c20.2-18.4,39.5-37.8,57.9-58c5.9-6.5,11.6-13,17.3-19.7c13.5-15.8,26.4-32.2,38.7-49
	c31.3-42.7,58.9-88.7,83-137.9c7.5-15.4,14.7-31.1,21.5-47.2c0.6-1.5,1.3-2.9,1.9-4.4c24.4-58.3,44-120.7,59-187.2
	c6.7-29.8,12.4-60.3,17.3-91.8c2.9-19,5.4-37.9,7.5-56.6H688.2z"/>
</svg>
