<svg xmlns="http://www.w3.org/2000/svg" viewBox="0 0 1030 939"><defs><style>.cls-1{fill:#35a1ff;}.cls-2{fill:#ffdd5f;}.cls-3{fill:#ff7996;}</style></defs><g id="Layer_2" data-name="Layer 2"><g id="Layer_1-2" data-name="Layer 1"><path class="cls-1" d="M706.47,565.31c-73.75-22.65-163.82-32.15-269.07-28.47q-84.09,2.94-180.91,17.1-19.35,2.84-38.2,5.15c-63.22,7.77-122.17,11.17-175.71,10.13Q20.85,568.8,0,567.39V366.85c44,3.87,90.92,3,136.91-.52,31-2.39,61.57-6,90.6-10.27q57.69-8.44,112.22-13.33c66.85-6,129.88-7.93,188.31-5.78,87.56,3.23,167.34,15.73,237.14,37.17,68.38,21,128.87,51,179.79,89.3a478.6,478.6,0,0,1,85,81.9V939H941.38c5.76-76.55-1.67-165.55-46.62-239.13C855.93,636.31,794.33,592.29,706.47,565.31Z"/><path class="cls-2" d="M626,756.08C707.53,831.42,793.51,892.5,868.1,939H530.58Q512.44,923.34,495,907.38C378,800.16,285.31,683.45,218.29,559.09A1098,1098,0,0,1,157.61,426.4q-11.28-29.81-20.7-60.07-12.94-41.59-22.38-84A1061.16,1061.16,0,0,1,89.81,83.44Q88.57,42,90.43,0H290.68q-1.6,29.76-1.32,59.07a864.59,864.59,0,0,0,24.77,198.86,851.58,851.58,0,0,0,25.6,84.8q36,100.23,97.67,194.11Q512.63,651.37,626,756.08Z"/><path class="cls-3" d="M1030,207.55V440.94C850.49,317.75,638.25,255.63,395.65,255.63c-13.15,0-26.33.18-39.66.54q-21.18.58-41.86,1.76a1586.66,1586.66,0,0,0-199.6,24.4c-43.39,8.07-82,17-114.53,25.49v-206c28.06-6.48,58.08-12.72,89.81-18.4A1777.61,1777.61,0,0,1,289.36,59.07q26.53-1.71,53.87-2.6C537.74,50.28,720.39,79.05,886.1,142A1220.5,1220.5,0,0,1,1030,207.55Z"/></g></g></svg>