<svg xmlns="http://www.w3.org/2000/svg" xmlns:xlink="http://www.w3.org/1999/xlink" viewBox="0 0 150 150"><defs><style>.cls-1{fill:none;}.cls-2{fill:url(#linear-gradient);}.cls-3{fill:url(#linear-gradient-2);}.cls-4{fill:url(#linear-gradient-3);}.cls-5{fill:url(#linear-gradient-4);}.cls-6{fill:url(#linear-gradient-5);}</style><linearGradient id="linear-gradient" x1="83.01" y1="1712.94" x2="134.94" y2="1742.92" gradientTransform="matrix(1, 0, 0, -1, 0, 1798)" gradientUnits="userSpaceOnUse"><stop offset="0.56" stop-color="#ffa055"/><stop offset="1" stop-color="#fbcc3b"/></linearGradient><linearGradient id="linear-gradient-2" x1="96.58" y1="1698.78" x2="96.58" y2="1767.8" gradientTransform="matrix(1, 0, 0, -1, 0, 1798)" gradientUnits="userSpaceOnUse"><stop offset="0.36" stop-color="#ff2ac4"/><stop offset="1" stop-color="#ffc37f"/></linearGradient><linearGradient id="linear-gradient-3" x1="73.66" y1="1698.78" x2="73.66" y2="1774" gradientTransform="matrix(1, 0, 0, -1, 0, 1798)" gradientUnits="userSpaceOnUse"><stop offset="0.07" stop-color="#342aff"/><stop offset="0.25" stop-color="#5f45fe"/><stop offset="0.61" stop-color="#b57bfc"/><stop offset="0.87" stop-color="#ea9dfb"/><stop offset="1" stop-color="#ffaafa"/></linearGradient><linearGradient id="linear-gradient-4" x1="69.16" y1="1682.21" x2="23.59" y2="1761.14" gradientTransform="matrix(1, 0, 0, -1, 0, 1798)" gradientUnits="userSpaceOnUse"><stop offset="0" stop-color="#e90088"/><stop offset="1" stop-color="#d4ebff"/></linearGradient><linearGradient id="linear-gradient-5" x1="67.16" y1="1699.46" x2="129.92" y2="1699.46" gradientTransform="matrix(1, 0, 0, -1, 0, 1798)" gradientUnits="userSpaceOnUse"><stop offset="0" stop-color="#3fe6ff"/><stop offset="1" stop-color="#977fff"/></linearGradient></defs><g id="Layer_2" data-name="Layer 2"><g id="Layer_1-2" data-name="Layer 1"><rect class="cls-1" width="150" height="150"/><path class="cls-2" d="M131.56,49.86c27.27,36.48-44.23,42.67-44.23,42.67S110.54,21.72,131.56,49.86Z"/><path class="cls-3" d="M100.34,99.22S121.76,70.88,113.44,47s-31.53-19.4-35.28-4.51S100.34,99.22,100.34,99.22Z"/><path class="cls-4" d="M56.89,29.16C94.37.71,100.33,99.22,100.33,99.22S19.41,57.59,56.89,29.16Z"/><path class="cls-5" d="M85.92,106.11S63.24,94.18,32.7,78.3C-3,59.66,14.8,31.47,35.09,36.47S85.92,106.11,85.92,106.11Z"/><ellipse class="cls-6" cx="98.54" cy="98.54" rx="31.38" ry="27.46"/></g></g></svg>