<?xml version="1.0" encoding="utf-8"?>
<!-- Generator: Adobe Illustrator 24.2.0, SVG Export Plug-In . SVG Version: 6.00 Build 0)  -->
<svg version="1.1" id="Layer_1" xmlns="http://www.w3.org/2000/svg" xmlns:xlink="http://www.w3.org/1999/xlink" x="0px" y="0px"
	 viewBox="0 0 142 118" style="enable-background:new 0 0 142 118;" xml:space="preserve">
<style type="text/css">
	.st0{fill:none;stroke:#000000;stroke-width:9;stroke-linecap:round;stroke-linejoin:round;}
</style>
<path class="st0" d="M6,7.7h20.7c57,0,57,36.7,57,98.4l-0.2,6.2"/>
<g>
	<g>
		<path d="M83.5,118c-1,0-2.1-0.4-2.9-1.1c-1.9-1.6-2.1-4.5-0.5-6.3l54-63c1.6-1.9,4.5-2.1,6.3-0.5c1.9,1.6,2.1,4.5,0.5,6.3l-54,63
			C86,117.5,84.8,118,83.5,118z"/>
	</g>
	<g>
		<path d="M82.5,118c-1.3,0-2.5-0.5-3.4-1.6l-54-63c-1.6-1.9-1.4-4.7,0.5-6.3c1.9-1.6,4.7-1.4,6.3,0.5l54,63
			c1.6,1.9,1.4,4.7-0.5,6.3C84.6,117.6,83.5,118,82.5,118z"/>
	</g>
</g>
</svg>
