<?xml version="1.0" encoding="utf-8"?>
<!-- Generator: Adobe Illustrator 24.2.0, SVG Export Plug-In . SVG Version: 6.00 Build 0)  -->
<svg version="1.1" id="Layer_1" xmlns="http://www.w3.org/2000/svg" xmlns:xlink="http://www.w3.org/1999/xlink" x="0px" y="0px"
	 viewBox="0 0 142 142" style="enable-background:new 0 0 142 142;" xml:space="preserve">
<style type="text/css">
	.st0{fill:none;}
</style>
<g id="Layer_2_1_">
	<g id="Layer_1-2">
		<rect class="st0" width="142" height="142"/>
		<path d="M115,60.2v42.7c0,9.1-7.4,16.6-16.6,16.6H73.1c-9.1,0-16.6-7.4-16.6-16.6v-0.2H65v0.2c0,4.4,3.6,8.1,8.1,8.1h25.3
			c4.4,0,8.1-3.6,8.1-8.1V60.2c0-4.4-3.6-8-8.1-8.1h-8.7v-8.5h8.7C107.6,43.6,115,51,115,60.2z"/>
		<path d="M68.9,98.4H43.5C34.4,98.4,27,91,27,81.8V39.2c0-9.2,7.4-16.6,16.5-16.6c0,0,0,0,0,0h25.3c9.1,0,16.6,7.4,16.6,16.6v42.7
			C85.4,91,78,98.4,68.9,98.4z M43.5,31.1c-4.4,0-8.1,3.6-8.1,8.1l0,0v42.7c0,4.4,3.6,8,8.1,8.1h25.3c4.4,0,8-3.6,8.1-8.1V39.2
			c0-4.4-3.6-8.1-8.1-8.1L43.5,31.1z"/>
	</g>
</g>
</svg>
