<svg xmlns="http://www.w3.org/2000/svg" xmlns:xlink="http://www.w3.org/1999/xlink" viewBox="0 0 50 50"><defs><style>.cls-1{fill:url(#linear-gradient);}.cls-2{fill:url(#linear-gradient-2);}.cls-3{fill:url(#linear-gradient-3);}.cls-4{fill:url(#linear-gradient-4);}</style><linearGradient id="linear-gradient" x1="6.71" y1="2.07" x2="19.44" y2="24.12" gradientUnits="userSpaceOnUse"><stop offset="0" stop-color="#aeadac"/><stop offset="1" stop-color="#404041"/></linearGradient><linearGradient id="linear-gradient-2" x1="15.73" y1="8.14" x2="36.58" y2="44.25" gradientUnits="userSpaceOnUse"><stop offset="0" stop-color="#ccc"/><stop offset="1" stop-color="#404041"/></linearGradient><linearGradient id="linear-gradient-3" x1="22.82" y1="29.56" x2="29.56" y2="22.82" gradientUnits="userSpaceOnUse"><stop offset="0" stop-color="#dcdcdc"/><stop offset="1" stop-color="#7f7e7e"/></linearGradient><linearGradient id="linear-gradient-4" x1="43.02" y1="52.2" x2="23.93" y2="19.13" gradientUnits="userSpaceOnUse"><stop offset="0.24" stop-color="#ffa5a3"/><stop offset="0.69" stop-color="#c04dff"/><stop offset="1" stop-color="#3e71fb"/></linearGradient></defs><g id="Layer_2" data-name="Layer 2"><g id="Layer_1-2" data-name="Layer 1"><path class="cls-1" d="M23.47,17.44c3.63-3.86,3.63-4.83,0-8.69-.16-5.21-.86-5.89-6.09-6-3.82-3.6-4.79-3.6-8.61,0-5.25.16-5.94.85-6.1,6.1-3.56,3.8-3.56,4.79,0,8.59.16,5.26.85,5.94,6.1,6.1,3.82,3.6,4.79,3.6,8.61,0C22.61,23.34,23.31,22.65,23.47,17.44Z"/><path class="cls-2" d="M47,23.81a26,26,0,0,0-3.79-4.74,24.73,24.73,0,0,0-.64-5.83,4.51,4.51,0,0,0-3.36-3.41,24.71,24.71,0,0,0-6-.67,24.49,24.49,0,0,0-4.62-3.69,4.45,4.45,0,0,0-4.76,0,24,24,0,0,0-4.72,3.73,25.27,25.27,0,0,0-5.91.65A4.58,4.58,0,0,0,9.8,13.19a25.77,25.77,0,0,0-.67,6,24.5,24.5,0,0,0-3.69,4.64,4.53,4.53,0,0,0,0,4.76,24.82,24.82,0,0,0,3.69,4.65,25.74,25.74,0,0,0,.67,6,4.56,4.56,0,0,0,3.38,3.38,24.74,24.74,0,0,0,5.91.65A24.49,24.49,0,0,0,23.81,47a4.47,4.47,0,0,0,4.76-.05,24.49,24.49,0,0,0,4.62-3.69,24.22,24.22,0,0,0,6-.67,4.51,4.51,0,0,0,3.36-3.41,24.73,24.73,0,0,0,.64-5.83A26,26,0,0,0,47,28.57,4.62,4.62,0,0,0,47,23.81Zm-6.93,4a17.71,17.71,0,0,1-2.53,3.14,15.51,15.51,0,0,1-.43,3.9,2.94,2.94,0,0,1-2.24,2.27,16.55,16.55,0,0,1-4,.45A16.45,16.45,0,0,1,27.78,40a3,3,0,0,1-3.19,0,16.77,16.77,0,0,1-3.14-2.48,17.37,17.37,0,0,1-3.93-.43,3.13,3.13,0,0,1-2.27-2.26,16.33,16.33,0,0,1-.42-4,16.43,16.43,0,0,1-2.48-3.09,3.05,3.05,0,0,1,0-3.19,16.13,16.13,0,0,1,2.48-3.1,16.39,16.39,0,0,1,.42-4,3.13,3.13,0,0,1,2.27-2.26,17.37,17.37,0,0,1,3.93-.43,16.23,16.23,0,0,1,3.14-2.47,3,3,0,0,1,3.19,0,16.88,16.88,0,0,1,3.08,2.45,16.55,16.55,0,0,1,4,.45,2.94,2.94,0,0,1,2.24,2.27,15.58,15.58,0,0,1,.43,3.9A17.36,17.36,0,0,1,40,24.6,3.1,3.1,0,0,1,40,27.79Z"/><polygon class="cls-3" points="28.16 21.43 24.21 21.43 21.42 24.22 21.42 28.16 24.21 30.95 28.16 30.95 30.95 28.16 30.95 24.22 28.16 21.43"/><path class="cls-4" d="M41.11,31.8c1.2-2.65,2.78-7.62-.43-10.83a15.89,15.89,0,0,0-10.87-4.3c-3.16.13-4.8,1.77-3.29,3.28L32.59,26c0,1.05-.08,2.11-.13,3.16l-3.28,3.28L26,32.59,20,26.52c-1.51-1.51-3.15.13-3.28,3.29A15.89,15.89,0,0,0,21,40.68c3.21,3.21,8.18,1.63,10.83.43,2,1.31,7,5.7,10,7.62s5.45,1.44,6.89,0,1.92-4.17,0-6.89S42.42,33.79,41.11,31.8Z"/></g></g></svg>