<?xml version="1.0" encoding="utf-8"?>
<!-- Generator: Adobe Illustrator 28.0.0, SVG Export Plug-In . SVG Version: 6.00 Build 0)  -->
<svg version="1.1" id="Layer_1" xmlns="http://www.w3.org/2000/svg" xmlns:xlink="http://www.w3.org/1999/xlink" x="0px" y="0px"
	 viewBox="0 0 77.9 88.2" style="enable-background:new 0 0 77.9 88.2;" xml:space="preserve">
<style type="text/css">
	.st0{clip-path:url(#SVGID_00000168809895403945542920000008262979243330545802_);fill:#FFB075;}
	.st1{clip-path:url(#SVGID_00000168809895403945542920000008262979243330545802_);}
	.st2{stroke:#000000;stroke-width:6.6468;stroke-linecap:round;stroke-linejoin:round;stroke-miterlimit:10;}
	.st3{fill:#FF95C8;}
	.st4{fill:none;stroke:#000000;stroke-width:6.6469;stroke-linejoin:round;stroke-miterlimit:10;}
	.st5{fill:none;stroke:#000000;stroke-width:6.6468;stroke-linecap:round;stroke-linejoin:round;stroke-miterlimit:10;}
</style>
<g>
	<defs>
		<path id="SVGID_1_" d="M77.7,33.9v20.4c0,22.4-6.2,28.6-28.6,28.6H28.8c-22.4,0-28.6-6.2-28.6-28.6V33.9
			c0-22.4,6.2-28.6,28.6-28.6h20.4C71.5,5.3,77.7,11.5,77.7,33.9z"/>
	</defs>
	<clipPath id="SVGID_00000086689581903130857880000008797532362139342497_">
		<use xlink:href="#SVGID_1_"  style="overflow:visible;"/>
	</clipPath>
	
		<rect x="0.2" y="5.3" style="clip-path:url(#SVGID_00000086689581903130857880000008797532362139342497_);fill:#FFB075;" width="77.5" height="77.5"/>
	<g style="clip-path:url(#SVGID_00000086689581903130857880000008797532362139342497_);">
		<line class="st2" x1="29" y1="23.6" x2="29" y2="5.3"/>
		<line class="st2" x1="49" y1="23.6" x2="49" y2="5.3"/>
		<path class="st3" d="M33.7,54.4c0,0,2.1,12,11.8,12s12.9-17.4,12.9-17.4L33.7,54.4z"/>
		<path class="st4" d="M29.3,51.3c0,0,2.9,9.9,13.3,13.3c14.5,4.8,14.5-19.4,14.5-19.4"/>
		<line class="st2" x1="64.8" y1="43.6" x2="56.5" y2="35.3"/>
		<line class="st2" x1="13.1" y1="43.6" x2="21.4" y2="35.3"/>
		<path class="st5" d="M17.3,41.1c0,0,5,11.7,21.7,11.7s21.7-11.7,21.7-11.7"/>
	</g>
</g>
</svg>
