<?xml version="1.0" encoding="utf-8"?>
<!-- Generator: Adobe Illustrator 28.0.0, SVG Export Plug-In . SVG Version: 6.00 Build 0)  -->
<svg version="1.1" id="Layer_1" xmlns="http://www.w3.org/2000/svg" xmlns:xlink="http://www.w3.org/1999/xlink" x="0px" y="0px"
	 viewBox="0 0 897.3 581.2" style="enable-background:new 0 0 897.3 581.2;" xml:space="preserve">
<style type="text/css">
	.st0{clip-path:url(#SVGID_00000024721159237975000750000008127620663108041139_);fill:#FFB075;}
	.st1{clip-path:url(#SVGID_00000024721159237975000750000008127620663108041139_);}
	.st2{stroke:#000000;stroke-width:38.8491;stroke-linecap:round;stroke-linejoin:round;stroke-miterlimit:10;}
	.st3{fill:#FF95C8;}
	.st4{fill:none;stroke:#000000;stroke-width:38.8497;stroke-linejoin:round;stroke-miterlimit:10;}
	.st5{fill:none;stroke:#000000;stroke-width:38.8491;stroke-linecap:round;stroke-linejoin:round;stroke-miterlimit:10;}
</style>
<g>
	<defs>
		<path id="SVGID_1_" d="M675.3,231v119.1c0,130.7-36.3,167-167,167H389.1c-130.7,0-167-36.3-167-167V231c0-130.7,36.3-167,167-167
			h119.1C638.9,64,675.3,100.3,675.3,231z"/>
	</defs>
	<clipPath id="SVGID_00000079447732973309077900000003445917135798716805_">
		<use xlink:href="#SVGID_1_"  style="overflow:visible;"/>
	</clipPath>
	
		<rect x="222" y="64" style="clip-path:url(#SVGID_00000079447732973309077900000003445917135798716805_);fill:#FFB075;" width="453.2" height="453.2"/>
	<g style="clip-path:url(#SVGID_00000079447732973309077900000003445917135798716805_);">
		<line class="st2" x1="390.3" y1="170.8" x2="390.3" y2="64"/>
		<line class="st2" x1="507.3" y1="170.8" x2="507.3" y2="64"/>
		<path class="st3" d="M418.1,350.8c0,0,12.3,70.1,68.7,70.1c56.4,0,75.1-101.9,75.1-101.9L418.1,350.8z"/>
		<path class="st4" d="M392.2,333.1c0,0,17.2,57.7,77.7,77.9c85,28.3,85-113.3,85-113.3"/>
		<line class="st2" x1="599.9" y1="288" x2="551.1" y2="239.2"/>
		<line class="st2" x1="297.4" y1="288" x2="346.2" y2="239.2"/>
		<path class="st5" d="M322,273.2c0,0,29,68.3,126.8,68.3s126.8-68.3,126.8-68.3"/>
	</g>
</g>
</svg>
