<svg xmlns="http://www.w3.org/2000/svg" xmlns:xlink="http://www.w3.org/1999/xlink" viewBox="0 0 150 150"><defs><style>.cls-1{fill:none;}.cls-2{fill:url(#linear-gradient);}.cls-3{fill:url(#linear-gradient-2);}.cls-4{fill:url(#linear-gradient-3);}.cls-5{fill:url(#linear-gradient-4);}.cls-6{fill:url(#linear-gradient-5);}.cls-7{fill:#fff;}.cls-8{fill:#f2f2f2;}</style><linearGradient id="linear-gradient" x1="18.49" y1="2607.67" x2="131.51" y2="2607.67" gradientTransform="matrix(1, 0, 0, -1, 0, 2686)" gradientUnits="userSpaceOnUse"><stop offset="0" stop-color="#e16aff"/><stop offset="1" stop-color="#ff3fef"/></linearGradient><linearGradient id="linear-gradient-2" x1="25.49" y1="2591.79" x2="124.55" y2="2591.79" gradientTransform="matrix(1, 0, 0, -1, 0, 2686)" gradientUnits="userSpaceOnUse"><stop offset="0" stop-color="#642284"/><stop offset="1" stop-color="#6115f6"/></linearGradient><linearGradient id="linear-gradient-3" x1="25.15" y1="2592.7" x2="124.87" y2="2592.7" gradientTransform="matrix(1, 0, 0, -1, 0, 2686)" gradientUnits="userSpaceOnUse"><stop offset="0" stop-color="#ffe704"/><stop offset="1" stop-color="#ff6b3a"/></linearGradient><linearGradient id="linear-gradient-4" x1="25.15" y1="2592.75" x2="124.88" y2="2592.75" gradientTransform="matrix(1, 0, 0, -1, 0, 2686)" gradientUnits="userSpaceOnUse"><stop offset="0" stop-color="#fe5583"/><stop offset="1" stop-color="#7655f7"/></linearGradient><linearGradient id="linear-gradient-5" x1="23.99" y1="2592.76" x2="125.99" y2="2592.76" gradientTransform="matrix(1, 0, 0, -1, 0, 2686)" gradientUnits="userSpaceOnUse"><stop offset="0" stop-color="#ffd312"/><stop offset="1" stop-color="#f7931e"/></linearGradient></defs><g id="Layer_2" data-name="Layer 2"><g id="Layer_1-2" data-name="Layer 1"><rect class="cls-1" width="150" height="150"/><path class="cls-2" d="M116.57,42.86c-14.43,0-27.13,10-41.56,10s-27.13-10-41.56-10c-15.76,14.43-20.09,64.26-8.06,69.84S64.11,100,75,111.58c10.93-11.59,37.64,6.68,49.62,1.12S132.33,57.29,116.57,42.86Z"/><path class="cls-3" d="M75,77.26H25.49c1,5,4,10,8,14.41A47,47,0,0,0,49.2,103a30,30,0,0,0,4.24,1.49,23.41,23.41,0,0,0,5.12.85A15.9,15.9,0,0,0,62.8,105c2.33-.54,6.87-2.25,9.75-.17a1.46,1.46,0,0,1,.24.17h0l.2.18c1.66,1.54,2,4.09,2,6.05,0-2,.33-4.51,2-6.05l.2-.18h0a1.24,1.24,0,0,1,.23-.17c2.89-2.08,7.43-.37,9.76.17a15.83,15.83,0,0,0,4.23.35,23.5,23.5,0,0,0,5.13-.85,30.08,30.08,0,0,0,4.31-1.49,46.8,46.8,0,0,0,15.73-11.31c4-4.38,7-9.4,8-14.41Z"/><path class="cls-4" d="M124.54,77.26H25.49a14.19,14.19,0,0,1-.34-2.34,17,17,0,0,0,.24,2.34,34.15,34.15,0,0,0,6.08,14.41,39.25,39.25,0,0,0,14.69,12.85,20.08,20.08,0,0,0,4.51,1.56,12.39,12.39,0,0,0,5.93,0,10.45,10.45,0,0,0,1.94-.77c4-2,6.43-6,10-5,2,.59,3.44,2.51,4.5,4.88a24.63,24.63,0,0,1,1.24,3.43c.08.24.14.46.2.68s.11.38.14.55.15.61.22.92.13.59.2.92c0-.3.12-.58.18-.92s.15-.59.22-.92a3.86,3.86,0,0,1,.15-.55c0-.19.12-.44.19-.68A25.18,25.18,0,0,1,77,105.13c1.07-2.37,2.52-4.29,4.51-4.87,3.56-1,5.93,3,10,5a10.24,10.24,0,0,0,2,.76,12.39,12.39,0,0,0,5.93,0,20.3,20.3,0,0,0,4.5-1.55,39.12,39.12,0,0,0,14.69-12.85,34.22,34.22,0,0,0,6.14-14.37c.11-.79.2-1.56.24-2.34A15.51,15.51,0,0,1,124.54,77.26Z"/><path class="cls-5" d="M124.87,74.87a15.33,15.33,0,0,1-.33,2.34H25.49a14.19,14.19,0,0,1-.34-2.34v2.34a60.19,60.19,0,0,0,2.24,14.42c2.17,7.54,5.92,14.35,11.33,16.43a4.84,4.84,0,0,0,.49.18c3.89,1.29,7.72-.14,11.44-2.2.92-.51,1.84-1.05,2.75-1.62,5.26-3.21,10.32-6.67,15.08-4.16a10.55,10.55,0,0,1,4.3,4.69,20.17,20.17,0,0,1,1.45,3.61c.07.24.13.46.19.68s.11.38.14.55.16.61.23.92.12.6.19.92c0-.29.12-.58.18-.92s.14-.59.22-.92.09-.35.15-.55.12-.44.19-.68A21.23,21.23,0,0,1,77.16,105a10.65,10.65,0,0,1,4.39-4.69c4.76-2.51,9.81.91,15.08,4.16.91.57,1.83,1.11,2.75,1.62,3.73,2.06,7.55,3.49,11.44,2.2a4.09,4.09,0,0,0,.49-.18c5.41-2.08,9.18-8.89,11.33-16.43a60.33,60.33,0,0,0,2.22-14.37C124.88,76.41,124.89,75.63,124.87,74.87Z"/><path class="cls-6" d="M126,91.63c-.12-4.23-.52-9.07-1-14.42-.06-.77-.14-1.55-.21-2.34a15.33,15.33,0,0,1-.33,2.34H25.55a18.3,18.3,0,0,1-.33-2.34c-.06.79-.14,1.57-.21,2.34-.48,5.35-.92,10.19-1,14.42-.2,8.18.67,14,4.25,16.6,2.82,2,6.42,1.45,10.53-.17a79.78,79.78,0,0,0,7.41-3.57l3-1.53c6.82-3.45,13.78-6.29,19.28-2.68a12.74,12.74,0,0,1,4,4.5A24.73,24.73,0,0,1,75,111.6a25,25,0,0,1,2.44-6.8,12.84,12.84,0,0,1,4-4.5C87,96.68,94,99.53,100.77,103l3,1.55c2.54,1.33,5,2.63,7.39,3.57,4.06,1.63,7.72,2.22,10.53.18C125.3,105.65,126.17,99.81,126,91.63Z"/><path class="cls-7" d="M75,111.58c-7.74-29.9-44.27-1.12-50.92-5.51s3.3-62,3.3-62C73.88,24.12,75,48.47,75,48.47"/><path class="cls-8" d="M75,48.47s1.11-24.35,47.6-4.43c0,0,10,57.57,3.32,62S82.78,81.68,75,111.55"/></g></g></svg>