<svg xmlns="http://www.w3.org/2000/svg" xmlns:xlink="http://www.w3.org/1999/xlink" viewBox="0 0 150 150"><defs><style>.cls-1{fill:none;}.cls-2{fill:#7484ff;}.cls-3{fill:url(#linear-gradient);}.cls-4{fill:url(#linear-gradient-2);}.cls-5{fill:url(#linear-gradient-3);}.cls-6{fill:url(#linear-gradient-4);}.cls-7{fill:url(#linear-gradient-5);}</style><linearGradient id="linear-gradient" x1="10.69" y1="1678.9" x2="64.34" y2="1771.81" gradientTransform="matrix(1, 0, 0, -1, 0, 1798)" gradientUnits="userSpaceOnUse"><stop offset="0" stop-color="#5556ff"/><stop offset="1" stop-color="#ffaae0"/></linearGradient><linearGradient id="linear-gradient-2" x1="30.83" y1="1721.18" x2="117.98" y2="1721.18" gradientTransform="matrix(1, 0, 0, -1, 0, 1798)" gradientUnits="userSpaceOnUse"><stop offset="0" stop-color="#5556ff"/><stop offset="1" stop-color="#b0aaff"/></linearGradient><linearGradient id="linear-gradient-3" x1="41.19" y1="1653.8" x2="107.96" y2="1720.58" gradientTransform="matrix(1, 0, 0, -1, 0, 1798)" gradientUnits="userSpaceOnUse"><stop offset="0" stop-color="#d40029"/><stop offset="1" stop-color="#ff7f98"/></linearGradient><linearGradient id="linear-gradient-4" x1="32.31" y1="1662.68" x2="113.76" y2="1744.13" gradientTransform="matrix(1, 0, 0, -1, 0, 1798)" gradientUnits="userSpaceOnUse"><stop offset="0" stop-color="#ff1556"/><stop offset="1" stop-color="#ffbb7f"/></linearGradient><linearGradient id="linear-gradient-5" x1="12.51" y1="1682.51" x2="104.58" y2="1774.58" gradientTransform="matrix(1, 0, 0, -1, 0, 1798)" gradientUnits="userSpaceOnUse"><stop offset="0" stop-color="#ff6755"/><stop offset="1" stop-color="#ffda6a"/></linearGradient></defs><g id="Layer_2" data-name="Layer 2"><g id="Layer_1-2" data-name="Layer 1"><rect class="cls-1" width="150" height="150"/><path class="cls-2" d="M30.83,119.19S118.06,44,126.16,75.39C133.26,102.91,30.83,119.19,30.83,119.19Z"/><path class="cls-3" d="M23.5,126.5S21.59,13,60.16,24.28C94,34.19,23.5,126.5,23.5,126.5Z"/><path class="cls-4" d="M30.83,119.19S76.23,17.29,112.37,37C144.11,54.25,30.83,119.19,30.83,119.19Z"/><path class="cls-5" d="M23.5,126.51S101.86,53.68,118.82,90C133.72,121.85,23.5,126.51,23.5,126.51Z"/><path class="cls-6" d="M23.5,126.51s62.09-93.36,94.59-68.13C146.63,80.47,23.5,126.51,23.5,126.51Z"/><path class="cls-7" d="M111.5,31.58c-6.7-20.37-88,0-88,94.93C23.5,126.51,118.2,52,111.5,31.58Z"/></g></g></svg>